<svg id="Layer_1" data-name="Layer 1" xmlns="http://www.w3.org/2000/svg" viewBox="0 0 50 50"><defs><style>.cls-1{fill:#ad712c;}.cls-2{fill:#d5a150;stroke:#d5a150;stroke-linecap:round;stroke-linejoin:round;stroke-width:0.11684px;}.cls-3{fill:#563f32;}.cls-4{fill:#7a5436;}.cls-5{fill:#7f430d;}</style></defs><path class="cls-1" d="M48.64234,18.66207A24.64274,24.64274,0,0,1,12.62227,46.40643,24.64424,24.64424,0,0,0,32.0131,1.425,24.62481,24.62481,0,0,1,48.64234,18.66207Z"/><path class="cls-2" d="M43.61631,16.49217a24.70046,24.70046,0,0,1,.83466,6.20757q.00389.76428-.03878,1.52162A24.68168,24.68168,0,0,1,39.3787,37.8q-.479.62619-.99807,1.22438a24.54609,24.54609,0,0,1-8.33753,6.22437A24.79543,24.79543,0,0,1,26.14045,46.644a24.53119,24.53119,0,0,1-13.51865-.23747,24.56338,24.56338,0,0,1-11.608-15.06949q-.2826-1.0619-.4669-2.127C.538,29.16288.52909,29.11568.52269,29.069A6.81343,6.81343,0,0,0,2.376,27.78269s.33221,1.16658,3.13775,1.19133a3.77946,3.77946,0,0,1,4.70892-3.77642c1.006-.59053,2.28049.35066,2.28049.35066.04491.04608.0896.09586.13292.14962a7.01516,7.01516,0,0,0,2.486-.99408,3.93019,3.93019,0,0,0,1.75275-2.31387.77308.77308,0,0,1-.16513-.3115.791.791,0,0,1,.32452-.86137,3.92108,3.92108,0,0,0-.0801-.85524s.60212.2726,3.27948-1.61993a3.95568,3.95568,0,0,0,.70344-.97308,1.61768,1.61768,0,0,1-.07572-.15274,1.988,1.988,0,0,1-.01248-1.20088,3.84911,3.84911,0,0,1-.46522-1.003,3.78161,3.78161,0,0,1,2.35617-4.635,6.29714,6.29714,0,0,0,.413-1.34194c.53026-2.7188-1.94682-5.14387-1.94682-5.14387A3.79641,3.79641,0,0,0,22.083.50823c.16664-.01895.33359-.03678.5003-.05092a24.46449,24.46449,0,0,1,9.42935.96785A24.56174,24.56174,0,0,1,43.61631,16.49217Z"/><path class="cls-1" d="M18.6478,42.5604s1.76543-.74908,1.41731-2.15207-1.21672-6.237-2.76906-6.84272-4.03153,1.35722-4.31821,3.485A4.85343,4.85343,0,0,0,14.95366,41.848,5.51367,5.51367,0,0,0,18.6478,42.5604Z"/><path class="cls-3" d="M19.20272,34.77033a3.781,3.781,0,1,1-5.113,1.56481,3.78543,3.78543,0,0,1,5.113-1.56481Z"/><path class="cls-4" d="M17.02031,35.27362A3.7814,3.7814,0,0,1,18.58743,40.386a3.74307,3.74307,0,0,1-1.43782,1.49329,3.77883,3.77883,0,0,1-1.6229-7.03588A3.74533,3.74533,0,0,1,17.02031,35.27362Z"/><path class="cls-1" d="M13.77,29.091a4.55767,4.55767,0,0,1-1.95653,3.47436,5.62556,5.62556,0,0,1-1.168.66751c-1.978.83591-4.92925-.29986-5.19787-1.94522a1.34471,1.34471,0,0,1,.02337-.4983,2.87255,2.87255,0,0,1,.254-.67211A7.58722,7.58722,0,0,1,6.51347,28.928a37.58976,37.58976,0,0,1,3.41619-3.50494,1.43391,1.43391,0,0,1,.293-.22548c1.006-.59053,2.28049.35066,2.28049.35066.04491.04608.0896.09586.13292.14962A5.67125,5.67125,0,0,1,13.77,29.091Z"/><path class="cls-3" d="M13.06928,28.68862a3.77774,3.77774,0,0,1-3.60585,3.95079,3.7781,3.7781,0,0,1-3.94821-3.60532c-.00059-.02041-.002-.03937-.00146-.06007a3.78059,3.78059,0,0,1,7.55552-.2854Z"/><path class="cls-4" d="M7.0583,30.65649a3.7814,3.7814,0,0,1,3.60393-3.95012,3.743,3.743,0,0,1,2.0171.4781,3.77883,3.77883,0,0,1-5.23155,4.97677A3.7453,3.7453,0,0,1,7.0583,30.65649Z"/><path class="cls-1" d="M28.41088,13.48268a4.85234,4.85234,0,0,1-2.03812,4.77164c-1.65925,1.24316-4.64359.919-5.43568-.48551a1.61768,1.61768,0,0,1-.07572-.15274,1.988,1.988,0,0,1-.01248-1.20088,7.86424,7.86424,0,0,1,.5482-1.49276,39.693,39.693,0,0,1,2.40459-4.076,1.52412,1.52412,0,0,1,.22918-.28827c.83476-.81581,2.2995-.20936,2.2995-.20936A5.5123,5.5123,0,0,1,28.41088,13.48268Z"/><path class="cls-3" d="M25.08367,17.96262a3.73383,3.73383,0,0,1-2.07166.02055,3.79283,3.79283,0,0,1-1.75517-1.05269,3.74092,3.74092,0,0,1-.408-.51529,3.84911,3.84911,0,0,1-.46522-1.003,3.78161,3.78161,0,0,1,2.35617-4.635c.06286-.02278.12745-.0436.19347-.06359a3.72759,3.72759,0,0,1,1.09755-.15544,3.78006,3.78006,0,0,1,1.05282,7.40449Z"/><path class="cls-4" d="M22.27274,16.61635a3.7814,3.7814,0,0,1,2.54863-4.70067,3.743,3.743,0,0,1,2.07287-.02084,3.77883,3.77883,0,0,1-3.88169,6.0885A3.74528,3.74528,0,0,1,22.27274,16.61635Z"/><path class="cls-1" d="M20.57423,26.28266s.24555,1.902,1.69044,1.94489,6.33411.5093,7.33582-.82234-.22041-4.24814-2.19222-5.0977a4.85344,4.85344,0,0,0-5.15232.60973A5.51373,5.51373,0,0,0,20.57423,26.28266Z"/><path class="cls-3" d="M27.92646,28.91663a3.781,3.781,0,1,1-.12883-5.34557,3.78541,3.78541,0,0,1,.12883,5.34557Z"/><path class="cls-4" d="M28.03,26.67934a3.7814,3.7814,0,0,1-5.34552.13125A3.743,3.743,0,0,1,21.634,25.0235a3.77883,3.77883,0,0,1,7.21291.33347A3.74529,3.74529,0,0,1,28.03,26.67934Z"/><path class="cls-1" d="M33.88448,28.90028s.414,1.87254,1.857,1.78653,6.3543-.05711,7.23337-1.47271-.59805-4.2116-2.63772-4.88209a4.85341,4.85341,0,0,0-5.07749,1.06639A5.51367,5.51367,0,0,0,33.88448,28.90028Z"/><path class="cls-3" d="M41.44217,30.86867a3.781,3.781,0,1,1-.60463-5.31283,3.7854,3.7854,0,0,1,.60463,5.31283Z"/><path class="cls-4" d="M41.346,28.63105a3.7814,3.7814,0,0,1-5.31256.607,3.74292,3.74292,0,0,1-1.20556-1.68638,3.77884,3.77884,0,0,1,7.21394-.31054A3.7452,3.7452,0,0,1,41.346,28.63105Z"/><path class="cls-1" d="M34.24491,42.14274s.31947-1.891-1.05019-2.35314-5.91067-2.3333-7.257-1.35143-1.0273,4.12794.61129,5.51531a4.85341,4.85341,0,0,0,5.10633.91842A5.5136,5.5136,0,0,0,34.24491,42.14274Z"/><path class="cls-3" d="M27.97957,37.48027a3.781,3.781,0,1,1-1.43476,5.15105,3.78543,3.78543,0,0,1,1.43476-5.15105Z"/><path class="cls-4" d="M27.22845,39.59025a3.7814,3.7814,0,0,1,5.15169,1.43244,3.743,3.743,0,0,1,.484,2.01568,3.77883,3.77883,0,0,1-6.80257-2.42125A3.74534,3.74534,0,0,1,27.22845,39.59025Z"/><path class="cls-1" d="M31.13708,8.93557s-1.30606,1.40431-.41571,2.5431,3.656,5.19752,5.32037,5.11705,3.12672-2.88425,2.52012-4.94382a4.85342,4.85342,0,0,0-3.7615-3.57341A5.51376,5.51376,0,0,0,31.13708,8.93557Z"/><path class="cls-3" d="M33.80943,16.274a3.781,3.781,0,1,1,4.02936-3.51511A3.78543,3.78543,0,0,1,33.80943,16.274Z"/><path class="cls-4" d="M35.59647,14.92388a3.7814,3.7814,0,0,1-3.51693-4.02778,3.743,3.743,0,0,1,.70328-1.95,3.77883,3.77883,0,0,1,4.35281,5.76111A3.745,3.745,0,0,1,35.59647,14.92388Z"/><circle class="cls-5" cx="38.83672" cy="38.37571" r="0.79247"/><circle class="cls-5" cx="32.85806" cy="46.46571" r="0.79247"/><circle class="cls-5" cx="44.58941" cy="32.11375" r="0.79247"/><circle class="cls-5" cx="44.65279" cy="23.46652" r="0.79247"/><circle class="cls-5" cx="39.87233" cy="20.55143" r="0.79247"/><circle class="cls-5" cx="40.14419" cy="14.20233" r="0.79247"/><circle class="cls-5" cx="44.79797" cy="12.96385" r="0.79247"/><circle class="cls-5" cx="16.16764" cy="46.04855" r="0.79247"/><circle class="cls-5" cx="22.86416" cy="41.62511" r="0.79247"/><circle class="cls-5" cx="23.46674" cy="33.63063" r="0.79247"/><circle class="cls-5" cx="31.38889" cy="29.23011" r="0.79247"/><circle class="cls-5" cx="32.17508" cy="33.77738" r="0.79247"/><circle class="cls-5" cx="17.88224" cy="28.95067" r="0.79247"/><circle class="cls-5" cx="11.56744" cy="40.08158" r="0.79247"/><circle class="cls-5" cx="11.56744" cy="40.08158" r="0.79247"/><circle class="cls-5" cx="7.17554" cy="36.97259" r="0.79247"/><circle class="cls-5" cx="23.29192" cy="20.45206" r="0.79216"/><path class="cls-5" d="M5.08324,31.53611A.79215.79215,0,1,1,4.114,30.9743.79308.79308,0,0,1,5.08324,31.53611Z"/><circle class="cls-5" cx="27.22041" cy="7.51007" r="0.79247"/><circle class="cls-5" cx="25.11048" cy="2.55641" r="0.79247"/><path class="cls-5" d="M18.24078,21.671a.79113.79113,0,0,1-1.36591.71895.77308.77308,0,0,1-.16513-.3115.791.791,0,0,1,.32452-.86137.78107.78107,0,0,1,.23728-.10787A.79284.79284,0,0,1,18.24078,21.671Z"/><circle class="cls-5" cx="31.93715" cy="20.27602" r="0.79247"/></svg>