<?xml version="1.0" encoding="utf-8"?>
<svg viewBox="2.243 0 407.51 176.57" xmlns="http://www.w3.org/2000/svg">
  <defs>
    <style type="text/css">
	.st0{fill:#D0AB80;}
	.st1{fill:#A08060;}
	.st2{fill:#181919;}
	.st3{fill:#302722;}
	.st4{fill:#FFFFFF;}
	.st5{fill:#84D7F4;}
	.st6{fill:#EBD1AE;}
	.st7{fill:#D5B288;}
	.st8{fill:#19150F;}
	.st9{fill:none;stroke:#D5B288;stroke-width:0.75;stroke-linecap:round;stroke-linejoin:round;stroke-miterlimit:10;}
	.st10{fill:#8C431A;}
	.st11{fill:#D0AA80;}
	.st12{fill:#0C192C;}
	.st13{fill:url(#SVGID_1_);}
	.st14{fill:#353535;}
</style>
  </defs>
  <g transform="matrix(1, 0, 0, 1, -43.721973, -160.313904)">
    <g>
      <g>
        <circle class="st0" cx="199.53" cy="229.79" r="16.63"/>
        <circle class="st1" cx="196.85" cy="229.41" r="3.68"/>
        <circle class="st2" cx="195.67" cy="229.77" r="3.14"/>
        <path class="st1" d="M197.61,219.3c4.79-0.48,9.28,2.07,11.08,6.13c2.14,4.84,0.08,10.98-5.06,13.81 c4.29-3.08,5.91-8.61,4.03-13.21C206.05,222.08,202.08,219.42,197.61,219.3z"/>
        <path class="st1" d="M196.87,222.9c3.14-0.17,6,1.63,7.05,4.34c1.25,3.23-0.28,7.18-3.72,8.87c2.9-1.88,4.12-5.44,3.04-8.5 C202.3,224.97,199.79,223.11,196.87,222.9z"/>
      </g>
      <g>
        <circle class="st0" cx="125.15" cy="237.41" r="16.63"/>
        <circle class="st1" cx="127.67" cy="236.42" r="3.68"/>
        <circle class="st2" cx="128.9" cy="236.5" r="3.14"/>
        <path class="st1" d="M124.6,226.76c-4.77,0.64-8.55,4.16-9.36,8.53c-0.96,5.21,2.46,10.7,8.11,12.27 c-4.89-2-7.74-7.01-6.98-11.92C117.03,231.42,120.27,227.91,124.6,226.76z"/>
        <path class="st1" d="M126.14,230.09c-3.1,0.57-5.46,2.98-5.85,5.86c-0.47,3.43,1.93,6.92,5.67,7.77 c-3.25-1.16-5.27-4.34-4.92-7.57C121.34,233.36,123.35,230.97,126.14,230.09z"/>
      </g>
      <path class="st3" d="M132.61,245.51c0,0-11.2-13.91-4.96-29.34c1.61-3.99,4.4-7.38,7.85-9.96c8.18-6.12,11.2-4.49,11.39-8.78 c0.21-4.94-5.04-10.62-5.04-10.62s13.42,3.43,15.02,9.44c0.21,0.64,3.65-3.86,3-10.09c0.11,0.32,8.37,8.37,9.55,10.73 c0,0,3.43-5.47,0.86-9.23c0.21,0.32,10.09,4.29,7.19,12.56c0,0.32,18.89,6.65,18.89,23.29s-1.93,14.38-0.75,19.64 C196.79,248.41,132.61,245.51,132.61,245.51z"/>
      <path class="st0" d="M135.19,244.97c-1.35-2.48-5.75-11.34-2.9-21.79c0.98-3.58,3.36-12.28,11.59-15.35 c8.97-3.34,17.35,2.81,18.03,3.33c0.38-0.44,6.3-7.14,14.7-5.9c7.67,1.13,11.53,8.01,12.45,9.66c0.47,0.84,0.99,1.92,1.5,3.43 c2.65,7.88,1.3,16.81,0,22.32C172.11,242.11,153.65,243.54,135.19,244.97z"/>
      <path class="st3" d="M254.67,317.89c-1.37,3.96-7.63,4.13-8.51,4.14c-3.75,0.04-6.5-1.74-7.61-2.55c0,0-5.59,6.03-31.35,9.26 c-21.49,2.68-44.6-8.97-52.37-13.94c-1.55-0.99-2.48-1.7-2.68-2c-0.94-0.26-1.86-0.56-2.77-0.91 c-8.19-3.09-15.05-9.64-14.62-19.06c-51.03-17.06-44.21-51.47-44.64-51.94c-4.99-1.34-17.28-9.77-21.3-12.45 c-4.02-2.68-2.79-5.26-2.79-5.26s16.58-0.78,17.39-0.46c0.81,0.32,4.51,4.75,10.55,6.04c6.03,1.28,11.83-4.59,12.15-4.51 c1.11,0.49,1.82,1.23,2.27,1.98c0.64,1.06,0.1,2.4-1.05,2.85c-1.68,0.66-3.32,2.38-3.56,4.02c-0.32,2.25-2.09,5.87-4.67,6.12 c12.07,31.71,29.05,26.07,29.54,26.24c0.49,0.16,69.62,3.7,70.03,3.46c4.19,3.23,22.86,2.34,22.86,2.34s7.97,18.74,7.97,19 c-9.42,2.17-32.85-4.67-32.68-4.59c9.5,11.59,20.13,9.66,20.13,9.66s19.63,13.59,19.63,13.77c-5.95,6.92-29.14,8.29-29.14,8.29 s0.25,1.46-1.53,2.5c16.18,1.69,31.18-4.62,31.18-4.62s1.4-4.78,7.73-5.47c0.97-0.11,5.59-1,8.34,2.14 C254.36,313.32,255.43,315.71,254.67,317.89z"/>
      <g>
        <circle class="st4" cx="175.81" cy="223.34" r="9.9"/>
        <circle class="st5" cx="174.81" cy="223.77" r="6.65"/>
        <circle cx="174.81" cy="223.77" r="4.92"/>
        <circle class="st4" cx="177.79" cy="220.78" r="1.93"/>
      </g>
      <g>
        <circle class="st4" cx="151.34" cy="223.34" r="9.9"/>
        <circle class="st5" cx="152.34" cy="223.77" r="6.65"/>
        <circle cx="152.34" cy="223.77" r="4.92"/>
        <circle class="st4" cx="149.35" cy="220.78" r="1.93"/>
      </g>
      <path class="st6" d="M189.39,325.36c-13.42-0.64-17.34-9.17-27.48-11.49c-2.47-0.56-6.2-0.91-8.41,0.12 c-1.55-0.99-1.15-0.89-1.35-1.19c-0.94-0.26-1.86-0.56-2.77-0.91c4.23,0.21,19.94,0.67,21.61-4.62 c-0.06,0.53,12.23,4.02,19.9-6.11c1.18,1.77-0.37,3.86,4.67,3.97c5.04,0.11,8.8,0.32,8.64,4.57 C204.03,313.93,206.07,323.48,189.39,325.36z"/>
      <path class="st6" d="M205.16,255.82c0,9.87-9.28,18.39-22.69,22.33c-0.88,0.26-1.66,0.81-2.15,1.59 c-1.44,2.33-6.62,4.06-12.8,4.06c-5.6,0-10.39-1.42-12.3-3.42c-0.56-0.59-1.3-0.97-2.09-1.14c-15.72-3.25-27.06-12.51-27.06-23.42 c0-9.08,7.85-17.01,19.54-21.3c0.6-0.22,1.11-0.6,1.47-1.13c0.68-1,1.76-2.29,3.27-3.23c0.63-0.39,1.43-0.33,2.01,0.14 c0.36,0.29,0.79,0.64,1.28,1.01c0.67,0.5,1.5,0.7,2.33,0.57c3.09-0.49,6.32-0.75,9.65-0.75c1.9,0,3.77,0.08,5.6,0.25 c0.49,0.05,0.99-0.03,1.45-0.22c0.6-0.25,1.13-0.53,1.55-0.84c0.59-0.44,1.39-0.5,1.98-0.06c0.58,0.43,1.31,1.02,2.09,1.75 c0.38,0.36,0.86,0.6,1.37,0.72C194.56,236.26,205.16,245.27,205.16,255.82z"/>
      <path class="st7" d="M163.9,238.05c0,0,3.43,5.85,0.75,10.09C164.7,247.98,170.07,243.47,163.9,238.05z"/>
      <g>
        <path class="st8" d="M149.53,236.46c0,0,2.37-1.57,4.91-1.49c-0.04-0.16-2.7-2.45-2.7-2.45l-1.85,1.85L149.53,236.46z"/>
        <path class="st7" d="M157.05,236.46c0,0-4.43-1.33-5.27-3.3c0-0.08-4.51,3.22-0.16,4.35c-0.08,0-1.89,1.37-2.82-1.29 s2.98-4.59,3.34-4.63C152.51,231.55,155,235.65,157.05,236.46z"/>
      </g>
      <g>
        <path class="st8" d="M176.87,236.46c0,0-2.37-1.57-4.91-1.49c0.04-0.16,2.7-2.45,2.7-2.45l1.85,1.85L176.87,236.46z"/>
        <path class="st7" d="M169.35,236.46c0,0,4.43-1.33,5.27-3.3c0-0.08,4.51,3.22,0.16,4.35c0.08,0,1.89,1.37,2.82-1.29 s-2.98-4.59-3.34-4.63C173.9,231.55,171.4,235.65,169.35,236.46z"/>
      </g>
      <path class="st7" d="M134.16,251.99c0,0-1.89-2.45,1.25-4.55c-0.02,0.05-0.34,0.43-0.67,1.44 C134.51,249.59,134.29,250.59,134.16,251.99z"/>
      <path class="st7" d="M196.65,249.54c0,0,2.13-2.76-1.4-5.11c0.03,0.05,0.38,0.49,0.75,1.62 C196.25,246.83,196.5,247.96,196.65,249.54z"/>
      <path class="st7" d="M195.45,246.48c-0.81,2.09-2.86,6.55-7.51,10.25c-5.56,4.42-11.44,5.07-13.63,5.21 c-2.9,0.77-10.71,2.41-19.37-1.07c-4.95-1.99-8.34-4.91-10.3-6.92c-5.25-4.09-6.89-4.08-7.67-4.08c-1.16,0,2.4,9.23,9.07,13.95 c2.34,1.65,4.31,2.29,7.35,3.27c3.19,1.03,10.2,3.21,19,1.66c3.69-0.65,8.5-1.49,13.2-5.26c5.68-4.55,7.65-10.53,8.32-12.99 C195.31,247.35,195.49,246.37,195.45,246.48z"/>
      <path class="st4" d="M143.83,254.58c0,0,5.42,9.55,24.15,9.55s23.77-10.09,23.77-10.09s-3.65,14.06-26.51,14.06 S143.83,254.58,143.83,254.58z"/>
      <path class="st8" d="M143.78,261.95c-5.2-4.94-7.84-12.1-6.82-12.1c0.68,0,2.01-0.02,5.81,2.68 C142.61,257.55,143.2,260.4,143.78,261.95z"/>
      <path class="st9" d="M193.89,250.5c-0.66,2.46-2.63,8.43-8.31,12.98c-4.71,3.77-9.52,4.62-13.21,5.26 c-8.79,1.55-15.8-0.63-18.99-1.66c-3.04-0.98-5.02-1.61-7.36-3.27c-0.8-0.56-1.55-1.18-2.25-1.85c-5.2-4.94-7.84-12.1-6.82-12.1 c0.68,0,2.01-0.02,5.81,2.68c0.56,0.4,1.18,0.86,1.86,1.39c1.97,2.02,5.36,4.94,10.31,6.93c8.66,3.48,16.47,1.83,19.37,1.07 c2.19-0.13,8.07-0.79,13.63-5.2c4.66-3.7,6.7-8.16,7.51-10.25C195.49,246.36,195.31,247.36,193.89,250.5z"/>
      <path class="st7" d="M156.38,272.56c0,0,10.57,3.11,20.39-0.97C176.83,271.59,166.53,279.96,156.38,272.56z"/>
      <path class="st10" d="M137.9,219.51c0,0,9.3-4.67,12.52-8.17c0.6-0.76,3.94-1.29,5.67,0.44c0.2,0.12-2.74-0.72-4.91,1.09 C149.01,214.68,148.4,217.62,137.9,219.51z"/>
      <path class="st10" d="M189.34,219.51c0,0-9.3-4.67-12.52-8.17c-0.6-0.76-3.94-1.29-5.67,0.44c-0.2,0.12,2.74-0.72,4.91,1.09 C178.23,214.68,178.84,217.62,189.34,219.51z"/>
      <path class="st11" d="M169.42,315.65c1.07,0.03,3.53-0.03,6.12-1.5c2.2-1.25,3.45-2.92,4.02-3.81c1.13,0.39,2.97,0.85,5.21,0.64 c4.31-0.4,7.09-3,7.94-3.86c-0.57,0.96-2.23,3.44-5.5,4.96c-3.09,1.43-5.89,1.2-7,1.05c-0.48,0.58-2.32,2.68-5.5,3.22 C172.18,316.77,170.19,315.99,169.42,315.65z"/>
      <path class="st11" d="M176.69,318.7c1.07,0.03,3.53-0.03,6.12-1.5c2.2-1.25,3.45-2.92,4.02-3.81c1.13,0.39,2.97,0.85,5.21,0.64 c4.31-0.4,7.09-3,7.94-3.86c-0.57,0.96-2.23,3.44-5.5,4.96c-3.09,1.43-5.89,1.2-7,1.05c-0.48,0.58-2.32,2.68-5.5,3.22 C179.45,319.83,177.46,319.05,176.69,318.7z"/>
      <path class="st11" d="M196.82,318.81c-0.08,0.39,0.62,0.69,0.54,0.99c-0.07,0.25-0.6,0.36-1.02,0.3 c-0.53-0.08-1.29-0.52-1.29-1.29c0-0.73,0.68-1.32,1.29-1.29c0.5,0.03,0.99,0.48,0.94,0.78 C197.24,318.54,196.88,318.55,196.82,318.81z"/>
      <g>
        <path class="st12" d="M113.59,216.62c0,0.67-0.27,1.27-0.71,1.7c-0.44,0.44-1.04,0.71-1.71,0.71H58.13 c-1.33,0-2.41-1.08-2.41-2.41c0-0.67,0.27-1.27,0.71-1.71c0.44-0.44,1.04-0.71,1.7-0.71h53.05 C112.51,214.2,113.59,215.29,113.59,216.62z"/>
        <path class="st12" d="M113.11,222.12v0.09c0,1.31-1.06,2.37-2.37,2.37H59.7c-1.31,0-2.37-1.06-2.37-2.37v-0.09 c0-0.42,0.11-0.81,0.3-1.16h55.17C113,221.31,113.11,221.7,113.11,222.12z"/>
        <path class="st12" d="M108.28,216.9c0,0.72-0.03,1.43-0.1,2.13H62.41c-0.07-0.7-0.1-1.42-0.1-2.13c0-0.91,0.05-1.81,0.16-2.7 c1.33-11.42,11.05-20.28,22.82-20.28c11.78,0,21.49,8.86,22.82,20.28C108.23,215.09,108.28,215.98,108.28,216.9z"/>
        <circle class="st12" cx="85.26" cy="193.92" r="3.38"/>
        <path class="st4" d="M66.74,211.54c0,0,5.47-10.06,13.52-13.36C80.27,198.18,70.45,198.02,66.74,211.54z"/>
      </g>
    </g>
    <radialGradient id="SVGID_1_" cx="321.5926" cy="239.6013" r="103.7303" gradientTransform="matrix(0.9387 0 0 1.0474 21.3487 -6.8183)" gradientUnits="userSpaceOnUse">
      <stop offset="0" style="stop-color:#FFB225"/>
      <stop offset="0.6392" style="stop-color:#FF910F"/>
      <stop offset="1" style="stop-color:#FF7C01"/>
    </radialGradient>
    <path class="st13" d="M434.05,317.41l-220.37-7.09c-6.46-0.21-11.57-6.16-11.48-13.37l1.25-97.74c0.09-6.89,4.92-12.54,11.08-12.97 l219.18-15.34c5.73-0.4,10.57,4.67,10.57,11.08v124.35C444.28,312.57,439.65,317.59,434.05,317.41z"/>
    <g>
      <circle class="st4" cx="306.51" cy="237.15" r="4.13"/>
      <g>
        <g>
          <path class="st4" d="M248.68,225.5c-3.97-3.94-5.95-8.72-5.95-14.33c0-5.62,1.98-10.41,5.95-14.35 c3.97-3.94,8.78-5.92,14.42-5.92c5.66,0,10.47,1.97,14.43,5.92c3.96,3.94,5.94,8.73,5.94,14.35c0,5.61-1.98,10.38-5.94,14.33 c-3.96,3.94-8.77,5.92-14.43,5.92C257.45,231.42,252.65,229.45,248.68,225.5z M270.97,219.28c2.15-2.22,3.23-4.92,3.23-8.11 c0-3.2-1.08-5.91-3.23-8.13c-2.15-2.22-4.78-3.33-7.88-3.33c-3.1,0-5.73,1.11-7.88,3.33c-2.15,2.22-3.23,4.93-3.23,8.13 c0,3.19,1.08,5.89,3.23,8.11c2.15,2.22,4.78,3.33,7.88,3.33C266.19,222.61,268.82,221.5,270.97,219.28z"/>
          <path class="st4" d="M288.93,199.59h9.71v5.02c0,0,3.7-5.19,10.06-5.19v9.88h-4.31c-3.27,0-5.92,2.65-5.92,5.92v14.73h-9.54 V199.59z"/>
          <path class="st4" d="M386.25,199.59h9.71v5.02c0,0,3.7-5.19,10.06-5.19v9.88h-4.31c-3.27,0-5.92,2.65-5.92,5.92v14.73h-9.54 V199.59z"/>
          <path class="st4" d="M334.95,189.96v13.81c-2.51-2.4-5.82-3.85-9.46-3.85c-7.81,0-14.14,6.71-14.14,14.98 c0,8.28,6.33,14.99,14.14,14.99c3.65,0,6.96-1.45,9.46-3.84v4.25h10.04v-40.34H334.95z M334.95,218.54 c-1.29,2.37-3.81,3.99-6.7,3.99c-4.21,0-7.62-3.41-7.62-7.62c0-4.2,3.41-7.62,7.62-7.62c2.89,0,5.41,1.62,6.7,3.99 c0.58,1.08,0.92,2.32,0.92,3.63C335.86,216.22,335.53,217.46,334.95,218.54z"/>
          <path class="st4" d="M365.72,199.48c-16.74,0-16.49,13.97-16.01,18.58c0.51,4.92,4.46,12.5,16.12,12.5s14.18-7.37,14.73-10.66 c-10.49,0-10.49,0-10.49,0s-0.62,3.01-4.24,3.01c-3.63,0-6.08-1.51-6.47-5.69h22.09C381.45,217.22,382.46,199.48,365.72,199.48z M359.41,211.76c0,0,0.84-5.31,6.25-5.31c5.41,0,5.97,5.31,5.97,5.31H359.41z"/>
        </g>
        <g>
          <path class="st4" d="M297.86,252.14v13.12h-7.24v-11.94c0-1.39,0.06-2.59-0.19-3.55c0,0,0,0-0.01-0.01 c-0.1-0.44-0.28-0.83-0.56-1.16c-0.88-1.05-1.72-1.46-3.41-1.46h-0.02c-0.01,0-0.01,0-0.02,0h-0.03 c-1.27,0.02-2.42,0.58-3.2,1.48c-0.01,0.01-0.01,0.01-0.02,0.02c-0.06,0.07-0.13,0.15-0.18,0.22c-0.03,0.03-0.05,0.06-0.07,0.09 c-0.05,0.07-0.1,0.15-0.15,0.22c-0.04,0.07-0.09,0.15-0.12,0.22c-0.5,1.04-0.54,2.42-0.54,4.16v11.71h-7.26v-29.65h7.35l0,9.01 c1.93-1.57,3.08-2.36,5.65-2.34c3.05,0,5.49,0.89,7.3,2.66C296.96,246.72,297.86,249.12,297.86,252.14z"/>
          <path class="st4" d="M366.09,275.67v-13.45c1.82,1.74,4.23,2.8,6.87,2.8c5.67,0,10.27-4.87,10.27-10.88 c0-6.02-4.6-10.89-10.27-10.89c-2.65,0-5.05,1.06-6.87,2.79v-3.09h-7.29v32.72H366.09z M366.09,251.49 c0.94-1.72,2.77-2.9,4.87-2.9c3.06,0,5.53,2.48,5.53,5.54c0,3.05-2.47,5.53-5.53,5.53c-2.1,0-3.93-1.17-4.87-2.9 c-0.42-0.78-0.66-1.68-0.66-2.63C365.42,253.18,365.67,252.28,366.09,251.49z"/>
          <path class="st4" d="M263.11,255.51h7.35c-1.95,5.72-7.36,9.82-13.73,9.82c-8.01,0-14.5-6.49-14.5-14.51 c0-8.01,6.49-14.5,14.5-14.5c6.56,0,12.1,4.35,13.9,10.32h-7.17c-1.39-2.24-3.88-3.74-6.73-3.74c-4.37,0-7.92,3.55-7.92,7.92 c0,4.38,3.55,7.92,7.92,7.92C259.36,258.74,261.69,257.47,263.11,255.51z"/>
          <rect x="302.83" y="242.73" class="st4" width="7.03" height="22.38"/>
          <path class="st4" d="M353.94,250.38c-0.17-1.4-0.67-2.7-1.42-3.82C353.4,247.63,353.92,248.82,353.94,250.38z"/>
          <path class="st4" d="M353.94,250.38v14.78h-7.31v-12.6c0-0.68-0.17-1.37-0.55-1.93c-0.16-0.24-0.35-0.47-0.56-0.68 c-0.83-0.84-1.98-1.35-3.25-1.35c-1.28,0-2.44,0.52-3.27,1.36c-0.64,0.65-0.96,1.56-0.96,2.47v12.72h-7.32v-12.71 c0-0.92-0.32-1.84-0.98-2.49l-0.01-0.01c-0.83-0.84-1.98-1.35-3.25-1.35c-1.54,0-2.91,0.75-3.74,1.91 c-0.43,0.59-0.62,1.31-0.62,2.04v12.61h-7.32v-22.43h7.32v2.68c1.31-1.07,3.43-2.45,6.19-2.54c0.86-0.03,1.65,0.07,2.4,0.25 c3.18,0.75,5.31,3.03,5.89,3.52c0.09-0.08,0.21-0.21,0.38-0.37c1.04-1.04,3.62-3.49,7.32-3.48h0.09 c0.3-0.03,0.61-0.04,0.92-0.04c2.4,0,4.57,0.98,6.14,2.54c0.39,0.39,0.73,0.8,1.04,1.25c0.01,0.01,0.02,0.03,0.03,0.03 C353.27,247.68,353.77,248.98,353.94,250.38z"/>
          <path class="st4" d="M354,251.42v5.86c0,0.34-0.02,0.68-0.06,1.01v-7.91C353.98,250.72,354,251.07,354,251.42z"/>
          <path class="st4" d="M385.31,257.57h7.25c0,0,0.5,2.79,3.46,2.79s4.19-3.29,0.17-4.13c-4.02-0.84-9.99-1.62-9.99-7.09 c0-5.47,6.75-6.53,9.77-6.53c3.01,0,9.6,1.95,9.6,7.31h-6.31c0,0-0.5-2.34-3.85-2.34s-3.52,2.9-0.11,3.74 c3.4,0.84,10.13,0.59,10.13,7.87C405.42,266.47,385.31,268.09,385.31,257.57z"/>
        </g>
      </g>
    </g>
    <g>
      <path class="st14" d="M261.14,286.17c-0.7,1.26-1.77,2.27-3.21,3.04c-1.44,0.77-3.23,1.16-5.37,1.16h-3.96v9.4h-6.38v-26.19h10.34 c2.09,0,3.86,0.36,5.3,1.08c1.44,0.72,2.52,1.72,3.25,2.98c0.72,1.27,1.08,2.72,1.08,4.37 C262.19,283.53,261.84,284.92,261.14,286.17z M254.8,284.44c0.6-0.57,0.9-1.38,0.9-2.43c0-1.04-0.3-1.85-0.9-2.43 c-0.6-0.57-1.51-0.86-2.72-0.86h-3.47v6.57h3.47C253.3,285.3,254.2,285.01,254.8,284.44z"/>
      <path class="st14" d="M271.89,272.16v27.61h-6.38v-27.61H271.89z"/>
      <path class="st14" d="M276.46,283.69c0.81-1.62,1.91-2.86,3.3-3.73c1.39-0.87,2.95-1.31,4.66-1.31c1.47,0,2.75,0.3,3.86,0.9 c1.11,0.6,1.96,1.38,2.56,2.35v-2.95h6.38v20.82h-6.38v-2.95c-0.62,0.97-1.49,1.75-2.59,2.35c-1.11,0.6-2.39,0.9-3.86,0.9 c-1.69,0-3.23-0.44-4.63-1.33c-1.39-0.88-2.49-2.14-3.3-3.77c-0.81-1.63-1.21-3.51-1.21-5.65 C275.25,287.19,275.65,285.31,276.46,283.69z M289.52,285.6c-0.88-0.92-1.96-1.38-3.23-1.38c-1.27,0-2.34,0.45-3.23,1.36 c-0.88,0.91-1.32,2.16-1.32,3.75c0,1.59,0.44,2.85,1.32,3.79c0.88,0.93,1.96,1.4,3.23,1.4c1.27,0,2.34-0.46,3.23-1.38 c0.88-0.92,1.32-2.18,1.32-3.77C290.84,287.77,290.4,286.52,289.52,285.6z"/>
      <path class="st14" d="M313.45,294.36v5.41h-3.25c-2.31,0-4.12-0.57-5.41-1.7c-1.29-1.13-1.94-2.98-1.94-5.54v-8.28h-2.54v-5.3 h2.54v-5.07h6.38v5.07h4.18v5.3h-4.18v8.36c0,0.62,0.15,1.07,0.45,1.34c0.3,0.27,0.8,0.41,1.49,0.41H313.45z"/>
      <path class="st14" d="M327.45,284.25h-3.43v15.52h-6.38v-15.52h-2.31v-5.3h2.31v-0.6c0-2.56,0.73-4.51,2.2-5.84 c1.47-1.33,3.62-2,6.45-2c0.47,0,0.82,0.01,1.04,0.04v5.41c-1.22-0.07-2.08,0.1-2.57,0.52c-0.5,0.42-0.75,1.18-0.75,2.28v0.19 h3.43V284.25z"/>
      <path class="st14" d="M334.4,298.77c-1.63-0.87-2.91-2.11-3.84-3.73c-0.93-1.62-1.4-3.51-1.4-5.67c0-2.14,0.47-4.02,1.42-5.65 c0.95-1.63,2.24-2.88,3.88-3.75c1.64-0.87,3.48-1.31,5.52-1.31c2.04,0,3.88,0.44,5.52,1.31c1.64,0.87,2.93,2.12,3.88,3.75 c0.94,1.63,1.42,3.51,1.42,5.65c0,2.14-0.48,4.02-1.44,5.65c-0.96,1.63-2.26,2.88-3.92,3.75c-1.65,0.87-3.5,1.31-5.54,1.31 C337.87,300.07,336.03,299.64,334.4,298.77z M343.02,293.21c0.86-0.9,1.29-2.18,1.29-3.84c0-1.67-0.42-2.95-1.25-3.84 c-0.83-0.9-1.86-1.34-3.08-1.34c-1.24,0-2.28,0.44-3.1,1.33c-0.82,0.88-1.23,2.17-1.23,3.86c0,1.67,0.4,2.95,1.21,3.84 c0.81,0.9,1.82,1.34,3.04,1.34C341.13,294.55,342.16,294.1,343.02,293.21z"/>
      <path class="st14" d="M363.38,279.72c1.12-0.66,2.36-0.99,3.73-0.99v6.75h-1.75c-1.59,0-2.79,0.34-3.58,1.03 c-0.8,0.68-1.19,1.88-1.19,3.6v9.66h-6.38v-20.82h6.38v3.47C361.32,281.28,362.26,280.38,363.38,279.72z"/>
      <path class="st14" d="M402.91,281.08c1.53,1.57,2.29,3.74,2.29,6.53v12.16h-6.34v-11.31c0-1.34-0.35-2.38-1.06-3.12 c-0.71-0.73-1.69-1.1-2.93-1.1c-1.24,0-2.22,0.37-2.93,1.1c-0.71,0.73-1.06,1.77-1.06,3.12v11.31h-6.34v-11.31 c0-1.34-0.35-2.38-1.06-3.12c-0.71-0.73-1.69-1.1-2.93-1.1c-1.24,0-2.22,0.37-2.93,1.1c-0.71,0.73-1.06,1.77-1.06,3.12v11.31 h-6.38v-20.82h6.38v2.61c0.65-0.87,1.49-1.56,2.54-2.07c1.04-0.51,2.23-0.76,3.54-0.76c1.57,0,2.97,0.34,4.2,1.01 c1.23,0.67,2.2,1.63,2.89,2.87c0.72-1.14,1.7-2.08,2.95-2.8c1.24-0.72,2.6-1.08,4.07-1.08 C399.32,278.73,401.38,279.51,402.91,281.08z"/>
    </g>
  </g>
</svg>