<svg viewBox="0 0 143 85" fill="none" xmlns="http://www.w3.org/2000/svg">
<g clip-path="url(#clip0_44_20)">
<path d="M98.78 77.94L4.88999 75.23C3.56557 75.2011 2.30674 74.6478 1.38991 73.6916C0.473073 72.7354 -0.0268217 71.4545 -1.23297e-05 70.13L0.529988 32.8C0.540854 31.5281 1.03609 30.3081 1.91485 29.3884C2.79362 28.4688 3.98985 27.9186 5.25999 27.85L98.64 22C99.2178 21.963 99.797 22.0451 100.342 22.2411C100.887 22.437 101.385 22.7427 101.807 23.1393C102.229 23.5358 102.565 24.0147 102.794 24.5464C103.023 25.078 103.141 25.651 103.14 26.23V73.7C103.14 74.267 103.027 74.8284 102.806 75.3508C102.586 75.8732 102.263 76.346 101.856 76.7414C101.449 77.1367 100.968 77.4465 100.439 77.6524C99.9111 77.8582 99.3468 77.9561 98.78 77.94Z" fill="url(#paint0_radial_44_20)"/>
<path d="M39.33 55.1C40.2247 55.1 40.95 54.3747 40.95 53.48C40.95 52.5853 40.2247 51.86 39.33 51.86C38.4353 51.86 37.71 52.5853 37.71 53.48C37.71 54.3747 38.4353 55.1 39.33 55.1Z" fill="white"/>
<path d="M16.66 48.92C15.5455 47.8077 14.7868 46.3892 14.4805 44.8447C14.1741 43.3002 14.3339 41.6995 14.9395 40.2461C15.5451 38.7926 16.5692 37.552 17.8816 36.682C19.194 35.812 20.7354 35.3518 22.31 35.36C23.3667 35.3366 24.417 35.5304 25.3958 35.9295C26.3745 36.3286 27.2609 36.9244 28 37.68C29.4779 39.1772 30.3065 41.1963 30.3065 43.3C30.3065 45.4037 29.4779 47.4228 28 48.92C27.2625 49.6687 26.3804 50.2595 25.4074 50.6567C24.4344 51.0538 23.3908 51.2488 22.34 51.23C21.2858 51.2522 20.2382 51.0587 19.2615 50.6615C18.2848 50.2642 17.3995 49.6716 16.66 48.92ZM25.4 46.48C26.21 45.6193 26.6611 44.4819 26.6611 43.3C26.6611 42.1181 26.21 40.9807 25.4 40.12C24.9991 39.7057 24.5189 39.3762 23.988 39.1512C23.4572 38.9262 22.8865 38.8103 22.31 38.8103C21.7334 38.8103 21.1628 38.9262 20.6319 39.1512C20.1011 39.3762 19.6209 39.7057 19.22 40.12C18.41 40.9807 17.9589 42.1181 17.9589 43.3C17.9589 44.4819 18.41 45.6193 19.22 46.48C19.6224 46.8918 20.103 47.2191 20.6336 47.4425C21.1643 47.6659 21.7342 47.781 22.31 47.781C22.8858 47.781 23.4557 47.6659 23.9864 47.4425C24.517 47.2191 24.9976 46.8918 25.4 46.48Z" fill="white"/>
<path d="M32.44 38.76H36.24V40.76C36.7105 40.1588 37.3072 39.6681 37.988 39.3226C38.6687 38.977 39.417 38.785 40.18 38.76V42.63H38.49C38.1858 42.63 37.8846 42.6901 37.6037 42.8068C37.3228 42.9235 37.0677 43.0945 36.853 43.3101C36.6384 43.5257 36.4685 43.7815 36.353 44.0629C36.2375 44.3443 36.1787 44.6458 36.18 44.95V50.72H32.44V38.76Z" fill="white"/>
<path d="M70.57 38.76H74.38V40.76C74.8505 40.1588 75.4472 39.6681 76.128 39.3226C76.8087 38.977 77.557 38.785 78.32 38.76V42.63H76.63C76.0147 42.63 75.4246 42.8744 74.9895 43.3095C74.5544 43.7446 74.31 44.3347 74.31 44.95V50.72H70.57V38.76Z" fill="white"/>
<path d="M50.47 35V40.4C49.4761 39.4344 48.1458 38.8929 46.76 38.89C45.2744 38.9962 43.8842 39.6613 42.8693 40.7514C41.8544 41.8415 41.2901 43.2756 41.2901 44.765C41.2901 46.2544 41.8544 47.6885 42.8693 48.7786C43.8842 49.8687 45.2744 50.5338 46.76 50.64C48.1458 50.6371 49.4761 50.0956 50.47 49.13V50.8H54.4V35H50.47ZM50.47 46.2C50.1227 46.8436 49.5522 47.3381 48.8659 47.5906C48.1795 47.8431 47.4246 47.8362 46.743 47.5712C46.0614 47.3062 45.5 46.8014 45.1645 46.1516C44.8289 45.5018 44.7423 44.7519 44.9208 44.0427C45.0993 43.3335 45.5308 42.714 46.134 42.3005C46.7372 41.8871 47.4707 41.7082 48.1965 41.7975C48.9223 41.8869 49.5905 42.2383 50.0755 42.7856C50.5605 43.333 50.8288 44.0387 50.83 44.77C50.8292 45.2658 50.7055 45.7537 50.47 46.19V46.2Z" fill="white"/>
<path d="M62.53 38.72C55.97 38.72 56.06 44.19 56.25 46C56.44 47.81 58 50.9 62.57 50.9C67.14 50.9 68.13 48.01 68.34 46.72H64.23C64.1351 47.0799 63.917 47.3951 63.6137 47.6107C63.3104 47.8263 62.941 47.9287 62.57 47.9C62.2497 47.9512 61.9221 47.9316 61.6102 47.8425C61.2983 47.7535 61.0097 47.5972 60.7647 47.3846C60.5197 47.172 60.3243 46.9083 60.1922 46.6121C60.0601 46.3159 59.9945 45.9943 60 45.67H68.65C68.65 45.67 69.09 38.72 62.53 38.72ZM60.06 43.53C60.153 42.948 60.4511 42.4185 60.9004 42.037C61.3497 41.6556 61.9206 41.4474 62.51 41.45C63.0887 41.4442 63.6488 41.6539 64.0814 42.0384C64.5139 42.4229 64.7879 42.9546 64.85 43.53H60.06Z" fill="white"/>
<path d="M35.94 59.36V64.5H33.1V59.82C33.1164 59.3544 33.0828 58.8884 33 58.43C32.967 58.2733 32.8986 58.1262 32.8 58C32.6456 57.7991 32.4423 57.6412 32.2094 57.5414C31.9765 57.4416 31.722 57.4032 31.47 57.43C31.2318 57.4288 30.9963 57.4802 30.7803 57.5805C30.5642 57.6807 30.3729 57.8274 30.22 58.01L30.15 58.1L30.09 58.18L30.04 58.27C29.8579 58.7929 29.7864 59.348 29.83 59.9V64.5H26.92V52.88H29.8V56.41C30.0844 56.1144 30.4263 55.8803 30.8047 55.722C31.1831 55.5638 31.5899 55.4848 32 55.49C32.5193 55.458 33.0397 55.53 33.5308 55.7017C34.0219 55.8734 34.4738 56.1414 34.86 56.49C35.23 56.8668 35.5173 57.3167 35.7032 57.8109C35.8892 58.3051 35.9699 58.8328 35.94 59.36Z" fill="white"/>
<path d="M62.67 68.58V63.3C63.3922 64.0046 64.361 64.3993 65.37 64.4C66.4654 64.3469 67.4985 63.8744 68.255 63.0804C69.0115 62.2864 69.4334 61.2317 69.4334 60.135C69.4334 59.0383 69.0115 57.9836 68.255 57.1896C67.4985 56.3956 66.4654 55.9231 65.37 55.87C64.3577 55.8829 63.3898 56.288 62.67 57V55.75H59.82V68.58H62.67ZM62.67 59.1C62.898 58.6769 63.26 58.3416 63.6992 58.1464C64.1385 57.9513 64.63 57.9076 65.0968 58.022C65.5636 58.1364 65.9792 58.4025 66.2784 58.7786C66.5776 59.1547 66.7435 59.6195 66.75 60.1C66.7474 60.6738 66.5176 61.2232 66.1109 61.628C65.7042 62.0328 65.1538 62.26 64.58 62.26C64.1898 62.2589 63.8071 62.1535 63.4713 61.9548C63.1355 61.7562 62.8589 61.4714 62.67 61.13C62.4993 60.8117 62.41 60.4562 62.41 60.095C62.41 59.7338 62.4993 59.3783 62.67 59.06V59.1Z" fill="white"/>
<path d="M22.32 60.67H25.2C24.7639 61.9549 23.883 63.0417 22.7162 63.7343C21.5494 64.4269 20.1735 64.6797 18.8366 64.4471C17.4998 64.2146 16.2901 63.5119 15.4258 62.466C14.5614 61.42 14.0992 60.0996 14.1227 58.7429C14.1462 57.3863 14.6537 56.0826 15.5537 55.0672C16.4537 54.0517 17.687 53.3914 19.031 53.2051C20.3751 53.0189 21.7414 53.3192 22.8836 54.0517C24.0258 54.7842 24.8686 55.9008 25.26 57.2H22.45C22.0992 56.6367 21.5768 56.2008 20.9598 55.9566C20.3428 55.7123 19.6637 55.6724 19.0223 55.8429C18.3809 56.0134 17.8112 56.3851 17.3969 56.9035C16.9826 57.422 16.7456 58.0596 16.7208 58.7228C16.6959 59.386 16.8846 60.0396 17.2589 60.5875C17.6333 61.1355 18.1736 61.5489 18.8004 61.7669C19.4272 61.9848 20.1074 61.9959 20.7409 61.7985C21.3745 61.601 21.928 61.2055 22.32 60.67Z" fill="white"/>
<path d="M40.64 55.67H37.88V64.44H40.64V55.67Z" fill="white"/>
<path d="M57.91 58.67C57.8484 58.1334 57.6599 57.6192 57.36 57.17C57.7136 57.59 57.9083 58.1209 57.91 58.67Z" fill="white"/>
<path d="M57.91 58.67V64.46H55.05V59.52C55.0542 59.2504 54.9776 58.9857 54.83 58.76C54.7682 58.6642 54.6943 58.5768 54.61 58.5C54.4423 58.3363 54.2435 58.2077 54.0255 58.1219C53.8074 58.036 53.5743 57.9946 53.34 58C53.1021 57.9983 52.8662 58.0443 52.6463 58.1353C52.4265 58.2264 52.2271 58.3606 52.06 58.53C51.9338 58.6633 51.8352 58.8203 51.77 58.992C51.7047 59.1636 51.6742 59.3465 51.68 59.53V64.53H48.82V59.53C48.8251 59.3457 48.7932 59.1623 48.7262 58.9905C48.6592 58.8188 48.5585 58.6622 48.43 58.53C48.2456 58.3443 48.0229 58.2012 47.7775 58.1104C47.5321 58.0196 47.2698 57.9834 47.009 58.0044C46.7481 58.0253 46.495 58.1029 46.2672 58.2316C46.0394 58.3604 45.8425 58.5373 45.69 58.75C45.5276 58.9809 45.4435 59.2578 45.45 59.54V64.49H42.58V55.67H45.45V56.67C46.1276 56.0778 46.9819 55.7262 47.88 55.67C48.1964 55.6621 48.5124 55.6957 48.82 55.77C49.6931 56.0235 50.4855 56.499 51.12 57.15L51.27 57C52.0112 56.1876 53.0419 55.6991 54.14 55.64H54.5C54.9463 55.6394 55.3883 55.7275 55.8003 55.8992C56.2123 56.0709 56.5861 56.3227 56.9 56.64C57.0525 56.7894 57.1899 56.9535 57.31 57.13C57.6336 57.5862 57.8397 58.1151 57.91 58.67Z" fill="white"/>
<path d="M57.94 59.07V61.37C57.9499 61.4998 57.9499 61.6302 57.94 61.76V58.67C57.9503 58.8031 57.9503 58.9368 57.94 59.07Z" fill="white"/>
<path d="M70.2 61.48H73.05C73.109 61.7932 73.2769 62.0754 73.5239 62.2768C73.771 62.4781 74.0814 62.5855 74.4 62.58C75.56 62.58 76.04 61.29 74.47 60.96C72.9 60.63 70.55 60.32 70.55 58.18C70.55 56.04 73.2 55.62 74.38 55.62C75.56 55.62 78.14 56.39 78.14 58.49H75.67C75.67 58.49 75.47 57.57 74.16 57.57C72.85 57.57 72.78 58.71 74.16 59.03C75.54 59.35 78.16 59.26 78.16 62.12C78.16 64.98 70.2 65.61 70.2 61.48Z" fill="white"/>
<path d="M76.71 32.85C76.71 32.85 77.52 36.55 80.57 36.51C80.57 36.51 84.74 50.11 94.68 52.93L100 43.45C100 43.45 91.55 40.45 88.6 34.45C88.7683 34.0134 88.876 33.5558 88.92 33.09C89.08 32.39 88.92 32.28 88.92 32.28C88.92 32.28 77.24 29.77 76.71 32.85Z" fill="#231F20"/>
<path d="M85.1 17.35C84.9846 18.0638 84.6153 18.7119 84.06 19.175C83.5047 19.6382 82.8008 19.8851 82.0779 19.8705C81.355 19.8559 80.6616 19.5807 80.1255 19.0955C79.5894 18.6104 79.2465 17.9479 79.16 17.23C79.1087 16.8037 79.1494 16.3714 79.2795 15.9622C79.4096 15.553 79.626 15.1765 79.9141 14.8582C80.2022 14.5398 80.5553 14.287 80.9495 14.1168C81.3437 13.9467 81.7698 13.8631 82.1991 13.8718C82.6284 13.8804 83.0508 13.9812 83.4378 14.1671C83.8248 14.3531 84.1674 14.6199 84.4424 14.9497C84.7174 15.2794 84.9184 15.6643 85.0318 16.0784C85.1453 16.4925 85.1686 16.9261 85.1 17.35Z" fill="#231F20"/>
<path d="M77.39 32.93L67.29 32.73C66.6684 32.7143 66.0785 32.4529 65.6492 32.003C65.22 31.5532 64.9866 30.9516 65 30.33C65.0079 29.7058 65.2628 29.1102 65.7088 28.6735C66.1549 28.2368 66.7558 27.9947 67.38 28H68.14C68.14 28 70.77 16.88 82.14 17.06C93.51 17.24 99.38 33.37 99.38 33.37L77.39 32.93Z" fill="#231F20"/>
<path d="M82.11 18.86C81.864 18.8553 81.6215 18.8015 81.3966 18.702C81.1716 18.6024 80.9688 18.4589 80.8 18.28C81.24 18.28 81.68 18.23 82.13 18.28C82.5715 18.2885 83.0122 18.3218 83.45 18.38C83.0829 18.7085 82.6021 18.8807 82.11 18.86Z" fill="url(#paint1_linear_44_20)"/>
<path d="M69.56 28.2C70.0887 25.7297 71.3478 23.4753 73.1738 21.7296C74.9998 19.9838 77.3084 18.8272 79.8 18.41C80.0379 18.8104 80.3739 19.1436 80.7763 19.3781C81.1788 19.6125 81.6343 19.7405 82.1 19.75C82.5646 19.7607 83.0242 19.6512 83.4341 19.4322C83.8441 19.2132 84.1905 18.8921 84.44 18.5C86.9133 19.0172 89.1743 20.265 90.9305 22.0818C92.6866 23.8985 93.857 26.2006 94.29 28.69L69.56 28.2Z" fill="url(#paint2_linear_44_20)"/>
<path d="M94.47 31.08C94.4632 31.4711 94.4365 31.8616 94.39 32.25L69.32 31.75C69.2997 31.3603 69.2997 30.9697 69.32 30.58C69.326 30.0882 69.3628 29.5972 69.43 29.11L94.43 29.6C94.4734 30.0921 94.4868 30.5863 94.47 31.08Z" fill="url(#paint3_linear_44_20)"/>
<path d="M84 17.05C83.9975 17.2938 83.9462 17.5346 83.8494 17.7583C83.7525 17.982 83.6119 18.1841 83.4358 18.3527C83.2598 18.5213 83.0518 18.653 82.8241 18.7401C82.5964 18.8273 82.3536 18.868 82.11 18.86C81.7442 18.852 81.389 18.7357 81.0893 18.5259C80.7896 18.3161 80.5589 18.0221 80.4263 17.6811C80.2936 17.3401 80.2651 16.9675 80.3442 16.6103C80.4233 16.2531 80.6066 15.9274 80.8708 15.6743C81.1351 15.4213 81.4684 15.2523 81.8287 15.1886C82.189 15.125 82.56 15.1696 82.895 15.3169C83.2299 15.4641 83.5136 15.7074 83.7103 16.0159C83.907 16.3243 84.0078 16.6842 84 17.05Z" fill="url(#paint4_linear_44_20)"/>
<path d="M97.74 31C97.7361 31.1734 97.6981 31.3443 97.6281 31.5029C97.5582 31.6616 97.4576 31.8049 97.3323 31.9247C97.2069 32.0445 97.0592 32.1384 96.8975 32.2011C96.7358 32.2638 96.5634 32.294 96.39 32.29L67.33 31.72C67.1529 31.7228 66.977 31.6896 66.8131 31.6225C66.6491 31.5554 66.5005 31.4557 66.3762 31.3295C66.2519 31.2033 66.1544 31.0532 66.0898 30.8883C66.0251 30.7234 65.9946 30.5471 66 30.37C66.0026 30.1958 66.0397 30.0238 66.109 29.864C66.1784 29.7042 66.2787 29.5597 66.4042 29.4388C66.5297 29.318 66.6779 29.2232 66.8403 29.1599C67.0026 29.0966 67.1758 29.066 67.35 29.07L96.41 29.64C96.7602 29.6476 97.0936 29.7911 97.34 30.04C97.5908 30.2973 97.7339 30.6407 97.74 31Z" fill="url(#paint5_linear_44_20)"/>
<path d="M84 17.05C83.9975 17.2938 83.9462 17.5346 83.8494 17.7583C83.7525 17.982 83.6119 18.1841 83.4358 18.3527C83.2598 18.5213 83.0518 18.653 82.8241 18.7401C82.5964 18.8273 82.3536 18.868 82.11 18.86C81.7442 18.852 81.389 18.7357 81.0893 18.5259C80.7896 18.3161 80.5589 18.0221 80.4263 17.6811C80.2936 17.3401 80.2651 16.9675 80.3442 16.6103C80.4233 16.2531 80.6066 15.9274 80.8708 15.6743C81.1351 15.4213 81.4684 15.2523 81.8287 15.1886C82.189 15.125 82.56 15.1696 82.895 15.3169C83.2299 15.4641 83.5136 15.7074 83.7103 16.0159C83.907 16.3243 84.0078 16.6842 84 17.05Z" fill="url(#paint6_linear_44_20)"/>
<path d="M92.08 28.1C92.08 28.1 89.19 22.53 84.81 20.63C84.81 20.63 90.2 20.65 92.08 28.1Z" fill="white"/>
<path d="M140.26 47.4C136.32 49.4 136.51 48.79 136.37 53.69C136.23 58.59 135.37 65.69 127.95 66.91C129.49 67.57 130.95 69.09 130.46 72.01C129.97 74.93 126.3 83.45 118.6 81.82C113.6 80.05 114.81 74.37 114.81 74.37C114.81 74.37 110.74 73.47 109.04 70.82C106.58 72.16 101.93 70.94 101.93 70.94C101.61 70.84 101.3 70.74 101.01 70.62C99.75 73.42 102.01 75.97 101.55 78.62C100 79.17 92.15 77.39 89.79 76.22C88.1316 75.5507 86.3138 75.3804 84.56 75.73C84.11 72.93 85.82 70.16 87.78 69.86C88.6088 69.7051 89.4633 69.7623 90.2641 70.0263C91.0648 70.2903 91.7858 70.7526 92.36 71.37C92.36 71.37 90.98 64.12 93.24 62.57C93.0503 62.058 92.8966 61.5334 92.78 61C92.2777 59.5841 92.0901 58.0758 92.23 56.58C92.48 50.71 95.3 44.75 97.35 43.36C99.4 41.97 121.49 44.89 121.49 44.89C121.49 44.89 129.78 50.52 129.49 56.07C129.529 57.682 129.002 59.2567 128 60.52C128 60.52 131.07 60.12 131.21 55.4C131.35 50.68 130.74 41.31 136.88 40.14C143.02 38.97 144.21 45.39 140.26 47.4Z" fill="#1E1E20"/>
<path d="M129.17 69.22C128.89 71.32 124.76 78.13 121.99 77.22C119.22 76.31 115.9 77.8 115.9 77.8C115.619 76.6511 115.572 75.4576 115.76 74.29C115.76 74.29 121.89 74.95 122.88 71.7C117.88 74.04 111.7 74.15 107.79 66.84C107.25 67.76 108.41 69.84 108.41 69.84C107.027 70.4798 105.455 70.5831 104 70.13C104 70.13 111.37 64.47 106.63 56.26C101.89 48.05 93.88 52.82 93.88 52.82C93.88 52.82 95.73 46.24 98.38 44.09C101.03 41.94 120.11 45.23 120.11 45.23C120.11 45.23 130.22 52.02 128.11 57.72C126.65 61.3 126.02 60.31 124.93 63.56C123.84 66.81 122.74 67.21 119.74 66.19C116.74 65.17 113.74 63.01 115.18 59.98C116.62 56.95 119.34 56.36 119.01 54.21C118.68 52.06 117.26 52.06 117.26 52.06C117.26 52.06 118.79 54.76 117.08 55.63C115.37 56.5 113.75 55.63 112.48 59.14C112.324 59.6989 112.37 60.2947 112.61 60.8232C112.849 61.3516 113.267 61.7788 113.79 62.03C113.79 62.03 111.91 64.94 113.67 67.53C114.275 68.4127 115.128 69.0958 116.121 69.4929C117.115 69.8899 118.204 69.9829 119.25 69.76C121.132 69.2318 122.831 68.1936 124.16 66.76C124.16 66.76 128.22 67.73 129.17 69.22Z" fill="#302722"/>
<path d="M137.94 47.06L137.27 47.37C133.61 49.01 135.88 52.81 134.38 59.79C132.88 66.77 125.25 66.18 125.25 66.18L127.5 61.74C131.2 61.5 132.5 56.83 132.45 54.05C132.4 51.27 131.94 45.63 134.58 42.69C134.68 42.71 138.5 43.47 137.94 47.06Z" fill="#302722"/>
<path d="M93.38 54.28C93.38 54.28 92.06 67.28 102.44 70.06C102.44 70.06 110.52 64.55 105.44 56.49C104.772 55.4042 103.862 54.4873 102.781 53.8108C101.701 53.1344 100.479 52.7166 99.21 52.59C97.1257 52.4241 95.0525 53.0251 93.38 54.28Z" fill="#F0B987"/>
<path d="M93.28 85C86.62 84.83 81.91 80.61 81.82 75C81.73 69.39 86.82 68 90.71 69.53C90.3307 67.9565 90.2988 66.3192 90.6165 64.7321C90.9343 63.145 91.5941 61.6462 92.55 60.34C92.768 60.9262 92.9418 61.5279 93.07 62.14C90.5 63.89 92.07 72.14 92.07 72.14C91.4195 71.4432 90.604 70.9213 89.6987 70.6225C88.7935 70.3236 87.8276 70.2574 86.89 70.43C84.67 70.77 82.73 73.91 83.24 77.07C85.2259 76.6783 87.2828 76.8728 89.16 77.63C91.84 78.96 100.73 80.97 102.49 80.35C103.01 77.3 100.31 74.29 101.97 71C102.33 71.09 102.97 71.22 102.97 71.22C102.579 73.5884 102.881 76.0195 103.84 78.22C105.44 81.63 99.94 85.14 93.28 85Z" fill="#1E1E20"/>
<path d="M102.47 80.29C100.71 80.91 91.82 78.9 89.14 77.57C87.2638 76.8095 85.2068 76.6114 83.22 77C82.71 73.84 84.65 70.7 86.87 70.36C87.8076 70.1874 88.7735 70.2536 89.6787 70.5525C90.584 70.8513 91.3995 71.3732 92.05 72.07C92.05 72.07 90.49 63.85 93.05 62.07L93.14 62.01C93.3851 62.876 93.7202 63.7139 94.14 64.51C95.6128 67.2391 97.9987 69.3631 100.88 70.51C101.205 70.6501 101.539 70.7671 101.88 70.86L101.78 71.11C100.43 74.35 103 77.24 102.47 80.29Z" fill="#302722"/>
<path d="M102.47 80.29C102.47 80.36 102.47 80.43 102.47 80.51C101.77 83.65 92.05 85.31 86.47 81.63C85.6268 81.1378 84.9 80.4692 84.339 79.6701C83.7781 78.871 83.3964 77.9602 83.22 77C85.2045 76.5986 87.2633 76.7899 89.14 77.55C91.82 78.9 100.71 80.91 102.47 80.29Z" fill="#F3B988"/>
<path d="M107.08 6.21C104.086 7.43349 101.366 9.24214 99.08 11.53C98.053 12.6089 97.1414 13.792 96.36 15.06C92.76 12.62 86.82 21.83 90.91 25.19C88.91 28.35 88.67 37.58 97.41 43.65C99.8018 45.588 102.604 46.9555 105.603 47.6486C108.603 48.3417 111.72 48.3422 114.72 47.65C115.505 47.4606 116.279 47.2303 117.04 46.96L117.47 46.78C125.93 43.25 126.47 41.59 126.47 41.59C127.493 42.1675 128.692 42.353 129.842 42.112C130.992 41.8709 132.015 41.2198 132.72 40.28C135.42 36.88 137.61 34.03 135.72 30.71C135.545 30.1474 135.175 29.6659 134.676 29.3523C134.177 29.0388 133.583 28.9138 133 29C133 29 136.57 19 125.41 8.86L125.28 8.74L123.96 7.38C123.081 6.60883 122.118 5.93803 121.09 5.38C120.985 4.66877 120.772 3.9776 120.46 3.33C120.12 2.56852 119.585 1.90986 118.91 1.42C117.669 0.447825 116.125 -0.0550674 114.55 -2.92761e-06H114.24C113.837 0.0625383 113.454 0.216471 113.12 0.449997C112.34 1.03 112.91 2.5 114.43 3.34C114.494 3.37469 114.545 3.42955 114.574 3.49605C114.604 3.56255 114.611 3.63695 114.593 3.70768C114.576 3.77841 114.536 3.8415 114.48 3.88713C114.423 3.93276 114.353 3.95838 114.28 3.96C112.978 4.00591 111.691 4.2452 110.46 4.67L107.08 6.21Z" fill="#231F20"/>
<path d="M94.62 22.25C94.62 22.25 98.78 9.1 108 10.75C111.43 12.57 110.38 14.29 114.58 14.75C118.78 15.21 124.58 15.06 126.58 19.44C128.58 23.82 126.68 30.13 121.13 30.64C120.95 31.26 122.96 32.18 122.96 34.44C122.96 36.44 119.07 48.87 106.52 46.63C103.911 46.1384 101.43 45.1174 99.23 43.63C93.52 39.84 88.23 34.2 91.88 25.2C92.414 23.9225 93.3853 22.8768 94.62 22.25Z" fill="#F0B987"/>
<path d="M125.64 37C125.64 37 127.48 32.12 130.73 30.81C133.98 29.5 135.26 31.23 134.84 33.42C134.52 35.07 132.69 39.05 130.26 40.52C129.584 40.925 128.783 41.0712 128.007 40.9314C127.232 40.7917 126.533 40.3755 126.04 39.76C125.746 39.3711 125.555 38.914 125.485 38.4314C125.415 37.9489 125.468 37.4564 125.64 37Z" fill="#F0B987"/>
<path d="M133.37 33.4C133.37 33.4 133.23 32.34 132.03 33.03C130.83 33.72 131.14 35.89 129.32 36.26C129.188 36.1249 129.024 36.0266 128.842 35.9749C128.661 35.9233 128.469 35.9201 128.286 35.9656C128.103 36.0111 127.935 36.1038 127.799 36.2344C127.663 36.365 127.563 36.529 127.51 36.71C127.356 37.0821 127.317 37.4921 127.4 37.8864C127.483 38.2806 127.682 38.6407 127.973 38.9196C128.264 39.1984 128.632 39.3829 129.029 39.449C129.427 39.5151 129.835 39.4597 130.2 39.29C132.14 38.44 134.25 35.61 133.37 33.4Z" fill="#D0975F"/>
<path d="M96.51 16.27C96.1902 16.6569 95.8963 17.0645 95.63 17.49C94.43 19.49 94.3 20.22 94.25 21.22C92.9 21.87 91.61 24.14 91.61 24.14C91.3455 24.0346 91.1261 23.8401 90.99 23.59C90.66 23 90.52 21.8 91.68 19.43C93.73 15.29 96.51 16.27 96.51 16.27Z" fill="#F7BB87"/>
<path d="M95.63 17.49C94.819 18.5738 94.3397 19.8694 94.25 21.22C92.9 21.87 91.61 24.14 91.61 24.14C91.3455 24.0346 91.1261 23.8401 90.99 23.59C91.35 22.58 93.25 18.42 95.63 17.49Z" fill="#D99B67"/>
<path d="M100.05 27.14C100.05 27.14 99.8 32.26 104.05 30.74C104.195 30.6289 104.313 30.4859 104.394 30.322C104.475 30.1581 104.517 29.9778 104.517 29.795C104.517 29.6122 104.475 29.4319 104.394 29.268C104.313 29.1041 104.195 28.9611 104.05 28.85C102.98 27.85 104.47 26.2 105.05 27.06C105.63 27.92 105.22 29 106.33 29.06C107.44 29.12 108.38 28.87 108.33 29.77C108.28 30.67 106.15 30.44 105.86 30.34C105.57 30.24 105.18 32.86 108.18 33.95C111.18 35.04 113 32.24 113 32.24C113 32.24 111.43 39.86 106.19 41.81C100.95 43.76 98.61 37.04 101.74 32.45C101.79 32.42 98 31.05 100.05 27.14Z" fill="#302722"/>
<path d="M101.42 38.94C101.42 38.94 103.48 33.83 109.64 37.76C109.64 37.76 105.4 44.33 101.42 38.94Z" fill="#FE3A65"/>
<path d="M126.29 61C125.569 61.9746 125.039 63.0775 124.73 64.25C124.568 64.7734 124.322 65.2666 124 65.71C124 65.71 123.32 67.36 120.37 66.53C119.99 66.42 119.61 66.25 119.18 66.1L118.53 65.85C116.24 64.8 114.53 63.25 114.89 61.58C114.894 61.1459 114.962 60.7147 115.09 60.3C115.328 59.6917 115.666 59.1274 116.09 58.63C117.27 60.12 120.99 64.24 124.56 61.75C125.072 61.3721 125.664 61.1157 126.29 61Z" fill="#F0B987"/>
<path d="M138.27 46.76C138.83 43.18 135.02 42.41 134.92 42.39C135.029 42.2628 135.146 42.1426 135.27 42.03C138.27 39.22 141.04 41.41 141.62 43.16C142.2 44.91 141.37 45.36 138.27 46.76Z" fill="#F0B987"/>
<path d="M120.28 81C119.306 81.0829 118.334 80.8209 117.533 80.2598C116.732 79.6986 116.154 78.874 115.9 77.93C115.9 77.93 119.21 76.5 121.99 77.35C124.77 78.2 128.89 71.35 129.17 69.35C129.249 69.4655 129.307 69.5942 129.34 69.73C129.78 71.32 128.14 79.83 120.28 81Z" fill="#F0B987"/>
<path d="M114.14 60.74C114.819 59.0875 115.971 57.6719 117.45 56.67C117.45 56.67 112.16 56.7 114.14 60.74Z" fill="#F0B987"/>
<path d="M120.501 26.3585C121.065 24.4407 120.364 22.5445 118.933 22.1232C117.503 21.7019 115.885 22.9151 115.321 24.833C114.756 26.7508 115.458 28.647 116.888 29.0683C118.318 29.4895 119.936 28.2763 120.501 26.3585Z" fill="#302722"/>
<path d="M119.217 25.1976C119.423 24.4983 119.165 23.8061 118.64 23.6517C118.116 23.4972 117.524 23.9389 117.318 24.6382C117.112 25.3375 117.37 26.0297 117.894 26.1841C118.419 26.3386 119.011 25.8969 119.217 25.1976Z" fill="white"/>
<path d="M103.63 23.67C103.63 23.67 104.5 18.74 98.18 17.57C99.6193 18.4532 100.724 19.79 101.32 21.37C101.32 21.37 98.7 20.53 97.2 22.13C97.2 22.13 101.76 21.44 103.63 23.67Z" fill="#302722"/>
<path d="M116.09 58.65C113.54 62.14 113.26 65.85 114.92 67.65C115.382 68.0756 115.924 68.4045 116.515 68.6175C117.106 68.8304 117.733 68.9231 118.36 68.89C122.36 68.89 125.56 64.75 126.29 61.02C121 61.16 121.19 61.69 116.09 58.65Z" fill="#F0B987"/>
<path d="M111.15 5.17C111.022 5.35972 110.912 5.56053 110.82 5.77C110.72 5.92207 110.655 6.09478 110.631 6.27525C110.607 6.45573 110.624 6.63931 110.681 6.81233C110.737 6.98535 110.832 7.14334 110.959 7.27453C111.085 7.40571 111.239 7.50672 111.41 7.57C112.97 8.22 114.89 5.7 114.89 5.7C114.136 5.93644 113.408 6.2515 112.72 6.64C111.09 7.48 110.08 6.11 112.47 4.91C113.695 4.38031 115.067 4.29196 116.35 4.66C116.67 4.66 116.89 4.66 116.98 4.39C117.22 3.77 116.32 3.54 115.25 3.06C115.03 2.96 114.79 2.85 114.56 2.72C114.33 2.59 114.19 2.5 114 2.36C112.54 1.36 114 1 114 1C114.97 0.805428 115.976 0.890065 116.9 1.24408C117.824 1.5981 118.628 2.20698 119.22 3C119.745 3.75088 120.109 4.60195 120.29 5.5C120.303 5.62359 120.348 5.74173 120.42 5.84323C120.491 5.94473 120.588 6.02623 120.7 6.08C120.879 6.14401 121.052 6.22088 121.22 6.31C121.768 6.60576 122.284 6.95765 122.76 7.36C122.922 7.49828 123.069 7.65238 123.2 7.82C123.634 8.35549 124.102 8.86316 124.6 9.34L124.74 9.47C128.02 12.47 134.02 18.25 132.33 28.05C132.33 28.05 129.01 30.05 128.74 32.11C127.854 33.0714 127.083 34.1318 126.44 35.27C126.076 35.8568 125.79 36.4888 125.59 37.15C125.251 38.38 125.272 39.6815 125.65 40.9C125.076 41.5279 124.451 42.1066 123.78 42.63C122.051 43.9538 120.091 44.9441 118 45.55C118 45.55 127 38.47 122.79 31.45C122.79 31.45 129.46 29.34 128.68 22.51C127.9 15.68 123.08 14.36 117.93 14.11C112.78 13.86 111.43 12.76 109.6 10.82C107.77 8.88 103.79 9.27 100.73 11.19L111.15 5.17Z" fill="#302722"/>
<path d="M77.82 33.14C78.0339 33.8863 78.4795 34.5452 79.0925 35.0215C79.7055 35.4979 80.454 35.767 81.23 35.79C81.2533 35.9757 81.3258 36.1517 81.44 36.3C82.533 36.4136 83.6336 36.4336 84.73 36.36C85.9317 36.283 87.0774 35.824 88 35.05L87.82 34.68C87.82 34.68 88.48 34.61 88.32 33.18C88.3084 33.0968 88.2681 33.0202 88.206 32.9636C88.1439 32.907 88.0639 32.8739 87.98 32.87L78.14 32.68C78.0856 32.6819 78.0325 32.6964 77.9847 32.7224C77.937 32.7485 77.8959 32.7853 77.8649 32.8299C77.8338 32.8746 77.8136 32.9258 77.8058 32.9796C77.798 33.0335 77.8029 33.0884 77.82 33.14Z" fill="#F0B987"/>
<path d="M84.49 34.17C84.3013 33.8177 84.0345 33.5133 83.71 33.28C83.41 33.0513 83.0713 32.8786 82.71 32.77H84.04C84.04 32.77 84.67 33.66 84.49 34.17Z" fill="#DA9C70"/>
<path d="M93.22 51.51C93.4946 50.031 93.9901 48.6016 94.69 47.27C95.4179 45.9518 96.3155 44.7347 97.36 43.65L94.61 42.08C91.7804 40.5168 89.5032 38.1173 88.09 35.21L88 35.05C87.3417 35.2304 86.6941 35.4474 86.06 35.7C85.6946 35.9318 85.3015 36.1165 84.89 36.25C83.7448 36.4803 82.5652 36.4803 81.42 36.25C82.3865 38.9632 83.7332 41.5254 85.42 43.86C87.5065 46.8856 90.1544 49.4826 93.22 51.51Z" fill="#302722"/>
</g>
<defs>
<radialGradient id="paint0_radial_44_20" cx="0" cy="0" r="1" gradientUnits="userSpaceOnUse" gradientTransform="translate(51.57 49.96) scale(41.49 41.49)">
<stop stop-color="#FFB225"/>
<stop offset="0.64" stop-color="#FF910F"/>
<stop offset="1" stop-color="#FF7C01"/>
</radialGradient>
<linearGradient id="paint1_linear_44_20" x1="80.79" y1="18.5213" x2="83.4395" y2="18.5735" gradientUnits="userSpaceOnUse">
<stop stop-color="#808285"/>
<stop offset="0.99" stop-color="#A7A9AC"/>
</linearGradient>
<linearGradient id="paint2_linear_44_20" x1="69.6555" y1="23.2026" x2="94.3807" y2="23.6903" gradientUnits="userSpaceOnUse">
<stop stop-color="#808285"/>
<stop offset="0.99" stop-color="#A7A9AC"/>
</linearGradient>
<linearGradient id="paint3_linear_44_20" x1="69.283" y1="30.4266" x2="94.4681" y2="30.9234" gradientUnits="userSpaceOnUse">
<stop stop-color="#808285"/>
<stop offset="0.99" stop-color="#A7A9AC"/>
</linearGradient>
<linearGradient id="paint4_linear_44_20" x1="80.2905" y1="16.9711" x2="83.9997" y2="17.0443" gradientUnits="userSpaceOnUse">
<stop stop-color="#808285"/>
<stop offset="0.99" stop-color="#A7A9AC"/>
</linearGradient>
<linearGradient id="paint5_linear_44_20" x1="66.0236" y1="30.3624" x2="97.7274" y2="30.9877" gradientUnits="userSpaceOnUse">
<stop stop-color="#808285"/>
<stop offset="0.99" stop-color="#A7A9AC"/>
</linearGradient>
<linearGradient id="paint6_linear_44_20" x1="80.2905" y1="16.9711" x2="83.9997" y2="17.0443" gradientUnits="userSpaceOnUse">
<stop stop-color="#808285"/>
<stop offset="0.99" stop-color="#A7A9AC"/>
</linearGradient>
<clipPath id="clip0_44_20">
<rect width="142.51" height="84.98" fill="white"/>
</clipPath>
</defs>
</svg>
